<?xml version="1.0" encoding="iso-8859-1"?>
<!-- Generator: Adobe Illustrator 19.0.0, SVG Export Plug-In . SVG Version: 6.00 Build 0)  -->
<svg version="1.1" id="Layer_1" xmlns="http://www.w3.org/2000/svg" xmlns:xlink="http://www.w3.org/1999/xlink" x="0px" y="0px"
	 viewBox="0 0 512 512" style="enable-background:new 0 0 512 512;" xml:space="preserve">
<path style="fill:#D83249;" d="M491.049,410.427L363.773,283.15c-7.036-7.037-18.444-7.036-25.48,0
	c-6.941,6.939-52.945,50.314-59.98,57.35c-7.037,7.036-7.037,18.444,0,25.48l128.592,128.593
	C418.143,505.811,433.086,512,448.977,512c15.893,0,30.835-6.189,42.073-17.427c11.239-11.238,17.428-26.18,17.428-42.073
	C508.477,436.606,502.288,421.664,491.049,410.427z"/>
<path style="fill:#FF4F59;" d="M416.65,336.027l-52.877-52.877c-7.036-7.037-18.444-7.036-25.48,0
	c-6.941,6.939-52.945,50.314-59.98,57.35c-7.037,7.036-7.037,18.444,0,25.48l128.592,128.593c2.809,2.809,5.851,5.303,9.08,7.464
	L416.65,336.027z"/>
<circle style="fill:#B1B0BC;" cx="210.083" cy="206.561" r="206.561"/>
<g>
	<path style="fill:#CFCDCF;" d="M210.086,413.126c-114.082,0-206.564-92.481-206.564-206.564S96.004,0,210.086,0V413.126z"/>
	<circle style="fill:#CFCDCF;" cx="210.083" cy="209.864" r="130.883"/>
</g>
<path style="fill:#FFFFFF;" d="M210.086,340.755c-72.287,0-130.888-58.6-130.888-130.888S137.798,78.98,210.086,78.98V340.755z"/>
<path style="fill:#555559;" d="M210.086,354.882c-9.951,0-18.017-8.067-18.017-18.017v-24.958c0-9.951,8.067-18.017,18.017-18.017
	s18.017,8.067,18.017,18.017v24.958C228.103,346.814,220.036,354.882,210.086,354.882z"/>
<path style="fill:#AEADB3;" d="M210.086,354.882c-9.951,0-18.017-8.067-18.017-18.017v-24.958c0-9.951,8.067-18.017,18.017-18.017
	V354.882z"/>
<path style="fill:#555559;" d="M210.086,277.872c-9.951,0-18.017-8.067-18.017-18.017v-9.147h-47.1
	c-9.951,0-18.017-8.067-18.017-18.017v-13.599H91.489c-9.951,0-18.017-8.067-18.017-18.017s8.067-18.017,18.017-18.017h53.48
	c9.951,0,18.017,8.067,18.017,18.017v13.599h47.099c9.951,0,18.017,8.067,18.017,18.017v27.164
	C228.103,269.805,220.036,277.872,210.086,277.872z"/>
<path style="fill:#AEADB3;" d="M210.086,277.872c-9.951,0-18.017-8.067-18.017-18.017v-9.147h-47.1
	c-9.951,0-18.017-8.067-18.017-18.017v-13.599H91.489c-9.951,0-18.017-8.067-18.017-18.017s8.067-18.017,18.017-18.017h53.48
	c9.951,0,18.017,8.067,18.017,18.017v13.599h47.099v63.199H210.086z"/>
<g>
	<path style="fill:#555559;" d="M269.532,253.849c-9.951,0-18.017-8.067-18.017-18.017v-10.172c0-9.951,8.067-18.017,18.017-18.017
		h63.252c9.951,0,18.017,8.067,18.017,18.017s-8.067,18.017-18.017,18.017h-47.027C282.84,249.698,276.671,253.849,269.532,253.849z
		"/>
	<path style="fill:#555559;" d="M217.924,201.073h-15.576c-9.951,0-18.017-8.067-18.017-18.017s8.067-18.017,18.017-18.017h15.576
		c9.951,0,18.017,8.067,18.017,18.017S227.876,201.073,217.924,201.073z"/>
</g>
<path style="fill:#AEADB3;" d="M210.125,201.073h-7.776c-9.951,0-18.017-8.067-18.017-18.017s8.067-18.017,18.017-18.017h7.737
	L210.125,201.073z"/>
<path style="fill:#555559;" d="M228.143,144.756h-18.056c-9.951,0-18.017-8.067-18.017-18.017s8.067-18.017,18.017-18.017h0.039
	v-36.48c0-9.951,8.067-18.017,18.017-18.017s18.017,8.067,18.017,18.017v54.497C246.161,136.69,238.094,144.756,228.143,144.756z"/>
<path style="fill:#AEADB3;" d="M210.086,144.756c-9.951,0-18.017-8.067-18.017-18.017s8.067-18.017,18.017-18.017h0.039
	L210.086,144.756z"/>
<g>
	<path style="fill:#555559;" d="M278.678,340.755c-9.951,0-18.017-8.067-18.017-18.017V281.03c0-9.951,8.067-18.017,18.017-18.017
		h40.026c9.951,0,18.017,8.067,18.017,18.017c0,9.95-8.067,18.017-18.017,18.017h-22.008v23.691
		C296.696,332.688,288.629,340.755,278.678,340.755z"/>
	<path style="fill:#555559;" d="M319.879,124.168h-15.213l-9.144-10.83V91.999c0-9.951-8.067-18.017-18.017-18.017
		c-9.95,0-18.017,8.067-18.017,18.017v50.187c0,9.372,7.158,17.067,16.304,17.931v19.892c0,9.951,8.067,18.017,18.017,18.017
		c9.951,0,18.017-8.067,18.017-18.017v-19.806h8.053c9.951,0,18.017-8.067,18.017-18.017
		C337.897,132.235,329.83,124.168,319.879,124.168z"/>
</g>
<g>
	<path style="fill:#AEADB3;" d="M140.788,155.523H97.217c-9.951,0-18.017-8.067-18.017-18.017c0-9.951,8.067-18.017,18.017-18.017
		h25.554v-18.716c0-9.951,8.067-18.017,18.017-18.017c9.95,0,18.017,8.067,18.017,18.017v36.733
		C158.806,147.457,150.738,155.523,140.788,155.523z"/>
	<path style="fill:#AEADB3;" d="M139.015,344.959c-9.951,0-18.017-8.067-18.017-18.017v-23.691H98.989
		c-9.951,0-18.017-8.067-18.017-18.017c0-9.951,8.067-18.017,18.017-18.017h40.026c9.951,0,18.017,8.067,18.017,18.017v41.708
		C157.033,336.892,148.966,344.959,139.015,344.959z"/>
</g>
<path style="fill:#FAD52A;" d="M210.086,367.824c-41.316,0-82.63-15.727-114.082-47.179c-62.905-62.905-62.905-165.259,0-228.163
	c31.452-31.452,72.767-47.178,114.081-47.178s82.63,15.726,114.082,47.178v0.001c62.905,62.905,62.905,165.259,0,228.163
	C292.715,352.097,251.401,367.824,210.086,367.824z M210.086,82.756c-31.719,0-63.439,12.073-87.587,36.221
	c-48.294,48.294-48.294,126.877,0.001,175.173c24.147,24.147,55.867,36.221,87.586,36.221s63.439-12.073,87.587-36.221
	c48.294-48.295,48.294-126.878,0-175.173C273.524,94.829,241.805,82.756,210.086,82.756z"/>
<path style="fill:#FFEA5E;" d="M210.085,330.37c-31.719,0-63.439-12.074-87.586-36.221c-48.295-48.295-48.295-126.878-0.001-175.173
	c24.148-24.148,55.867-36.221,87.587-36.221V45.303c-41.315,0-82.63,15.726-114.081,47.178c-62.905,62.905-62.905,165.259,0,228.163
	c31.452,31.452,72.767,47.179,114.082,47.179L210.085,330.37z"/>
<g>
</g>
<g>
</g>
<g>
</g>
<g>
</g>
<g>
</g>
<g>
</g>
<g>
</g>
<g>
</g>
<g>
</g>
<g>
</g>
<g>
</g>
<g>
</g>
<g>
</g>
<g>
</g>
<g>
</g>
</svg>
